<?xml version="1.0" encoding="UTF-8"?>
<svg version="1.1" xmlns="http://www.w3.org/2000/svg" width="1080" height="1080">
<path d="M0 0 C0.60972656 0.44472656 1.21945312 0.88945312 1.84765625 1.34765625 C16.32177747 12.53687052 24.98076382 30.76946747 31.76806641 47.24853516 C33.79917927 52.01409122 35.41987391 55.2030894 40 58 C44.93513119 59.64504373 49.18105436 59.62541961 53.9375 57.5 C57.90210679 55.33541584 60.72375907 52.46302858 63.80859375 49.203125 C67.05566892 45.93868579 70.645837 43.14722497 74.234375 40.26953125 C76.78742321 38.17444508 79.20765945 35.99878449 81.625 33.75 C118.82620514 0.05283302 166.72711959 -25.11090949 218 -23 C239.43541523 -21.7572208 260.65438917 -15.49864915 277 -1 C277.81855469 -0.30003906 278.63710938 0.39992188 279.48046875 1.12109375 C307.60683676 25.67315781 319.25918407 60.57368311 322.16173317 97.03146712 C322.90216888 108.0673136 323.14495023 119.07121083 323.13130188 130.12857056 C323.13300994 131.77024872 323.13516228 133.41192646 323.13771313 135.05360353 C323.14226065 138.58520893 323.14374085 142.11679693 323.14274788 145.64840508 C323.1411382 151.39788868 323.14639283 157.14735532 323.15237427 162.89683533 C323.1604482 171.24351623 323.16541739 179.59019412 323.16866493 187.9368782 C323.17418956 201.14106769 323.1911136 214.34523177 323.21000671 227.54940796 C323.21636167 232.07682987 323.22267031 236.60425184 323.22898388 241.13167381 C323.23056764 242.26277472 323.2321514 243.39387563 323.23378316 244.55925233 C323.2516824 257.40473412 323.26792873 270.25021767 323.28295898 283.09570312 C323.28433486 284.2686012 323.28571073 285.44149927 323.28712829 286.6499397 C323.30907599 305.67220568 323.31982088 324.69446499 323.32732973 343.7167414 C323.33540962 363.284713 323.35872268 382.85262777 323.3952834 402.42056692 C323.41725599 414.47060707 323.42698916 426.52053024 323.42078307 438.57058941 C323.41760081 446.82864405 323.42898908 455.08659888 323.45167748 463.34462263 C323.46430075 468.10212724 323.47056887 472.85940938 323.45926094 477.61692238 C323.44901999 481.98173242 323.4574896 486.34611242 323.4801239 490.7108721 C323.48507778 492.27991537 323.48346864 493.84899797 323.47419123 495.41802163 C323.4106273 507.09693809 323.74828517 520.99580031 331.0625 530.6875 C342.6109113 541.84277389 361.54592656 542.6495601 376.57421875 544.4609375 C391.90883028 546.42402523 391.90883028 546.42402523 398 551.5 C401.18891539 555.79857176 400.68994869 560.92228775 400 566 C398.62211352 569.89050301 397.5827406 570.69707879 393.91973114 572.60119057 C389.70766419 574.32329539 385.8510043 574.41958267 381.34680176 574.38095093 C380.07729573 574.38797089 380.07729573 574.38797089 378.78214312 574.39513266 C375.95941817 574.40705411 373.13718128 574.39763661 370.31445312 574.38818359 C368.28539243 574.39225056 366.25633395 574.39759314 364.22727966 574.40411377 C358.72527818 574.41777825 353.22344566 574.41249223 347.72144127 574.40297651 C341.96048913 574.39537547 336.19955135 574.40242677 330.43859863 574.40713501 C320.76454067 574.41259125 311.09055143 574.40540435 301.41650391 574.39111328 C290.23576426 574.37478706 279.05518874 574.38007566 267.87445307 574.3965925 C258.27087071 574.41021106 248.66733773 574.4121252 239.06374884 574.40427649 C233.32970839 574.39960203 227.59574507 574.39896894 221.86170959 574.40888596 C216.4706613 574.41755867 211.07982439 574.41152795 205.6887989 574.39420319 C203.71151645 574.39024 201.73421618 574.3913695 199.75694084 574.39799118 C197.05545399 574.40620333 194.35464222 574.39588904 191.65319824 574.38095093 C190.48280589 574.39098918 190.48280589 574.39098918 189.28876925 574.40123022 C183.10741186 574.33504798 178.44863215 573.00913407 173.5625 569 C171.15810261 564.38355702 171.1553449 560.09035505 172 555 C173.75120835 550.98916798 176.45672849 549.24345006 180.42578125 547.46484375 C185.86639244 545.5213248 191.48865838 544.85957667 197.1875 544.0625 C206.09737404 542.72307759 214.57540319 541.2994164 223 538 C223.77085937 537.70480469 224.54171875 537.40960937 225.3359375 537.10546875 C231.50161394 534.41228295 235.46317415 530.42226076 238.22265625 524.27734375 C240.77144563 517.48970751 242.12384346 511.50272186 242.13142776 504.23050022 C242.1334804 503.5593494 242.13553303 502.88819857 242.13764787 502.19670984 C242.14331077 499.94350444 242.14186148 497.69036031 242.14044189 495.43714905 C242.14302599 493.80684175 242.14603928 492.17653509 242.1494453 490.5462293 C242.15751433 486.06217 242.15930483 481.57812672 242.16004276 477.09406102 C242.16189366 472.25864109 242.16944154 467.42322946 242.17617798 462.58781433 C242.18976463 452.00845938 242.19578751 441.42910821 242.20018864 430.84974599 C242.20295244 424.2377707 242.20719023 417.62579686 242.21169281 411.01382256 C242.22388958 392.69286344 242.2341857 374.3719055 242.2375679 356.05094242 C242.23789725 354.29159346 242.23789725 354.29159346 242.23823325 352.4967021 C242.23845153 351.32103341 242.23866981 350.14536471 242.2388947 348.93406969 C242.23933816 346.55183097 242.23978472 344.16959224 242.24023438 341.78735352 C242.24056652 340.014854 242.24056652 340.014854 242.24090537 338.20654642 C242.24484655 319.09372379 242.26227792 299.98093945 242.2855939 280.86813159 C242.3093611 261.22599 242.32177232 241.58386756 242.32293582 221.94171137 C242.32384996 210.9215238 242.32953557 199.90138602 242.34775543 188.88121223 C242.36322951 179.48875236 242.36823436 170.09635763 242.36001733 160.70388741 C242.35613554 155.91942354 242.35691784 151.13509055 242.37107468 146.35064316 C243.15683178 95.66353924 243.15683178 95.66353924 220.25268555 52.05883789 C204.8228113 36.6551204 185.62538663 32.05797825 164.4375 31.98828125 C134.46449649 33.11872858 109.51857205 47.92687195 89 69 C88.48832275 69.48976318 87.97664551 69.97952637 87.44946289 70.48413086 C83.13592511 74.65130231 79.53782872 79.01302946 76.125 83.9375 C75.3530127 85.04774536 75.3530127 85.04774536 74.56542969 86.18041992 C60.0048358 107.43156602 50.49396676 131.00807426 46.25 156.4375 C46.13422607 157.11498291 46.01845215 157.79246582 45.89916992 158.49047852 C43.17527605 176.56760537 43.84839081 195.16602581 43.85461628 213.3886807 C43.85482309 217.17743359 43.84927545 220.96617922 43.84455872 224.75492859 C43.83631328 232.15086502 43.83350672 239.54679347 43.83294634 246.94273412 C43.83246854 252.96042517 43.83040076 258.97811361 43.82724571 264.99580383 C43.81845816 282.10794913 43.8138237 299.22008819 43.81457619 316.33223575 C43.81461614 317.25143096 43.8146561 318.17062617 43.81469727 319.11767578 C43.81473815 320.03800978 43.81477903 320.95834377 43.81482115 321.90656668 C43.81522775 336.8269767 43.80564964 351.74736151 43.7915589 366.66776425 C43.77715949 382.03775795 43.77029058 397.40773938 43.77115268 412.77774 C43.77148327 421.38701922 43.76879649 429.99627195 43.75797462 438.60554504 C43.74882283 445.93216485 43.74673272 453.25874615 43.75348405 460.58536923 C43.75672495 464.31437274 43.75689499 468.04330254 43.7481308 471.77229881 C41.9848623 503.67292307 41.9848623 503.67292307 53.625 531.9375 C68.47541915 541.01275615 85.33947352 542.98995314 102.40161133 544.78564453 C109.13745381 545.58076503 116.12588675 547.03607071 121 552.0625 C123.17607123 556.27863801 123.51988164 560.33930669 123 565 C121.51257205 568.18734561 119.75748245 570.79401404 117 573 C112.94784922 574.23691029 108.94534055 574.145077 104.74552917 574.14044189 C103.48599339 574.14489858 103.48599339 574.14489858 102.20101243 574.1494453 C99.38294028 574.15812774 96.56491064 574.15964016 93.74682617 574.16113281 C91.72806202 574.16576128 89.70929875 574.17078598 87.6905365 574.17617798 C82.20287539 574.18930055 76.71522652 574.19574657 71.22755218 574.20018864 C67.79955553 574.20311937 64.37156224 574.20722416 60.94356728 574.21169281 C50.21946261 574.22536688 39.49536559 574.23503419 28.77125281 574.2388947 C16.38923381 574.24337647 4.00732514 574.26093034 -8.37466031 574.2898953 C-17.94420022 574.31150467 -27.51370906 574.32159857 -37.08327311 574.32293582 C-42.79948872 574.3239843 -48.5156006 574.32990156 -54.23179054 574.34775543 C-59.60882304 574.36422335 -64.98567368 574.36639777 -70.3627224 574.35761642 C-72.33517315 574.35684539 -74.30763364 574.3611975 -76.28005981 574.37107468 C-78.97511597 574.38377806 -81.66952647 574.37792612 -84.36457825 574.36749268 C-85.14299523 574.37554908 -85.92141221 574.38360548 -86.72341758 574.39190602 C-92.51983117 574.33951255 -97.23063815 573.21548948 -101.875 569.5 C-104.79772217 565.6030371 -104.56980516 560.62966689 -104 556 C-101.73031343 551.46062686 -99.54438027 549.15655705 -95 547 C-91.21783462 546.14658833 -87.39883937 545.61282482 -83.5625 545.0625 C-61.12223607 542.01069367 -61.12223607 542.01069367 -43.28125 529.2109375 C-36.30442421 517.17165885 -36.85119942 502.86983652 -36.86628723 489.436203 C-36.86441706 487.85464067 -36.86211554 486.2730788 -36.85942191 484.69151765 C-36.85332256 480.36085285 -36.85343531 476.03020741 -36.85461628 471.6995393 C-36.85482077 467.02237663 -36.84929678 462.3452201 -36.84455872 457.6680603 C-36.83626079 448.50843724 -36.83350422 439.34882061 -36.83294634 430.18919411 C-36.83247057 422.73772935 -36.8304128 415.28626671 -36.82724571 407.83480263 C-36.81843988 386.68433971 -36.81382599 365.53388186 -36.81457619 344.38341709 C-36.81461614 343.24376689 -36.8146561 342.10411669 -36.81469727 340.92993164 C-36.81473815 339.78888068 -36.81477903 338.64782971 -36.81482115 337.47220144 C-36.81522714 319.00171027 -36.80566927 300.53123953 -36.7915589 282.06075426 C-36.7771675 263.07164293 -36.7702903 244.08254154 -36.77115268 225.09342462 C-36.77148379 214.44225566 -36.76877454 203.7911081 -36.75797462 193.13994408 C-36.74883299 184.06629962 -36.74672412 174.99268624 -36.75348405 165.91903915 C-36.75673144 161.29684395 -36.7568711 156.67470825 -36.7481308 152.05251884 C-35.84435179 98.03851384 -35.84435179 98.03851384 -59.6171875 51.23046875 C-75.31930137 36.53226052 -94.47310852 31.88315406 -115.515625 32.0234375 C-142.33899717 33.30948959 -165.18902412 45.54057085 -185 63 C-185.65871094 63.57492187 -186.31742188 64.14984375 -186.99609375 64.7421875 C-209.82111053 86.0961533 -224.64526373 117.27587104 -231.25 147.4375 C-231.40114258 148.11474121 -231.55228516 148.79198242 -231.70800781 149.48974609 C-235.4817849 168.08177431 -235.29353306 186.938411 -235.26144934 205.81466377 C-235.25687076 209.80987 -235.26393488 213.80505966 -235.26940918 217.80026245 C-235.27824666 225.59960058 -235.27640691 233.39889997 -235.2705839 241.19823954 C-235.26604663 247.54063242 -235.26546338 253.88301452 -235.26763153 260.22540855 C-235.26809123 261.58512468 -235.26809123 261.58512468 -235.26856022 262.97230982 C-235.26919973 264.81437344 -235.26984816 266.65643706 -235.2705054 268.49850067 C-235.27619172 285.72105417 -235.26967671 302.94358629 -235.25890467 320.16613629 C-235.24996311 334.91862953 -235.25152947 349.6710913 -235.26074219 364.42358398 C-235.27146182 381.59694631 -235.27565051 398.77028998 -235.26951766 415.94365519 C-235.26888062 417.77699355 -235.26825188 419.61033191 -235.26763153 421.44367027 C-235.26732298 422.34548781 -235.26701443 423.24730536 -235.26669653 424.1764507 C-235.26497523 430.50799191 -235.26787229 436.8395212 -235.27259064 443.17106056 C-235.27821799 450.89125305 -235.27664385 458.6114049 -235.26602915 466.33159278 C-235.26079849 470.26452445 -235.25867099 474.19738853 -235.26532745 478.1303196 C-235.271343 481.73928258 -235.26792081 485.34811612 -235.25737235 488.95706757 C-235.25412523 490.86154085 -235.26055858 492.76602331 -235.26748681 494.67048675 C-235.21371347 506.65306637 -234.2304645 518.08957795 -229 529 C-228.566875 530.06347656 -228.566875 530.06347656 -228.125 531.1484375 C-226.69870284 533.49588491 -225.52145146 533.96360269 -223 535 C-222.21367187 535.39058594 -221.42734375 535.78117188 -220.6171875 536.18359375 C-209.59195276 541.22504724 -198.12812379 542.49663584 -186.19140625 543.70703125 C-184.40972046 543.89048096 -184.40972046 543.89048096 -182.59204102 544.07763672 C-180.25157314 544.31211301 -177.90957554 544.53192851 -175.56616211 544.73486328 C-167.93584303 545.4797505 -159.52909827 546.47090173 -153.875 552.125 C-152.39472239 556.98876927 -152.00801234 562.34834068 -153.8125 567.171875 C-156.09559481 570.68663938 -160.1373762 572.51852921 -164.10315132 573.54364491 C-167.84168288 574.13259452 -171.52508163 574.1412591 -175.29879761 574.13371277 C-176.54736437 574.1371111 -176.54736437 574.1371111 -177.82115471 574.14057809 C-180.60848577 574.14690489 -183.39576803 574.14608957 -186.18310547 574.14526367 C-188.18231265 574.14825597 -190.18151925 574.15165867 -192.1807251 574.15544128 C-197.61048101 574.16427795 -203.04022117 574.16661925 -208.46998358 574.16725707 C-213.00281507 574.16820665 -217.5356429 574.17188549 -222.06847298 574.17542917 C-232.76261018 574.18357235 -243.45673896 574.18601351 -254.15087891 574.18530273 C-265.18271545 574.18470186 -276.21450311 574.19525586 -287.24632728 574.2110464 C-296.71822365 574.22412103 -306.19010404 574.22948667 -315.66200936 574.22884732 C-321.3189396 574.22859233 -326.9758264 574.2314445 -332.63274765 574.24202538 C-337.95313199 574.2517051 -343.27343133 574.25178636 -348.59381866 574.24450874 C-350.54530334 574.24346277 -352.49679329 574.24582653 -354.44826889 574.2518692 C-357.11469088 574.25959024 -359.7808194 574.25494355 -362.44723511 574.24723816 C-363.21718807 574.25238172 -363.98714103 574.25752529 -364.78042591 574.26282471 C-370.77980906 574.22458325 -375.969629 573.5448475 -380.875 569.8125 C-383.47622581 566.36970114 -383.92466126 564.29430844 -384 560 C-383.17294177 555.40523206 -381.49661291 552.91954023 -377.75537109 550.08569336 C-372.31455493 546.72055992 -366.24086141 545.52994336 -360 544.625 C-348.19886987 542.70762698 -336.90973353 539.93681347 -327 533 C-326.34 533 -325.68 533 -325 533 C-325 532.34 -325 531.68 -325 531 C-324.34 531 -323.68 531 -323 531 C-322.30580437 529.34461042 -321.64896236 527.67363977 -321 526 C-320.75894531 525.41476562 -320.51789063 524.82953125 -320.26953125 524.2265625 C-315.49293618 511.5697979 -315.70441416 497.45601052 -315.74603271 484.10520935 C-315.74372202 482.46454371 -315.74054144 480.82387911 -315.73657823 479.18321663 C-315.72830527 474.72187186 -315.73232096 470.26061374 -315.73855066 465.79926884 C-315.74310514 460.96962814 -315.73607666 456.14000159 -315.73059082 451.31036377 C-315.72172716 441.86794937 -315.72360523 432.42556687 -315.7294161 422.98315125 C-315.73394428 415.30535993 -315.73454051 407.62757751 -315.73236847 399.94978523 C-315.732062 398.8544655 -315.73175554 397.75914577 -315.73143978 396.63063454 C-315.73080029 394.40509605 -315.73015187 392.17955756 -315.7294946 389.95401908 C-315.72380025 369.11660101 -315.73033528 348.27920058 -315.74109533 327.4417854 C-315.75003128 309.5843097 -315.7484767 291.72686 -315.73925781 273.86938477 C-315.72854152 253.10181391 -315.72434817 232.33425849 -315.73048234 211.56668526 C-315.7311194 209.34992318 -315.73174814 207.13316109 -315.73236847 204.916399 C-315.73267702 203.82587771 -315.73298557 202.73535642 -315.73330347 201.61178903 C-315.73502624 193.94775158 -315.73212437 186.28372396 -315.72740936 178.61968803 C-315.72178548 169.27341369 -315.72334867 159.92717292 -315.73397085 150.58090239 C-315.7392071 145.81751236 -315.74131937 141.0541782 -315.73467255 136.29078865 C-315.72866844 131.92175472 -315.73206098 127.55282791 -315.74262765 123.18380357 C-315.74484289 121.61202102 -315.74376816 120.04022924 -315.73887607 118.46845274 C-315.08891419 97.54287102 -315.08891419 97.54287102 -323.51171875 79.33203125 C-333.55783972 70.50626337 -349.7992929 70.12059127 -362.45629883 68.48193359 C-377.23636627 66.4961853 -377.23636627 66.4961853 -381.9375 62.25 C-383.95962859 57.96784533 -384.38018852 54.46226354 -383.1875 49.875 C-377.07959031 41.84746155 -365.6099319 40.46871056 -356.3125 38.5 C-333.29985763 33.39485021 -314.43679817 26.22550719 -295.9140625 11.51708984 C-294.08011783 10.06350156 -292.23116539 8.63208399 -290.375 7.20703125 C-283.69668856 2.05656505 -277.21540286 -3.28530773 -270.88037109 -8.85351562 C-258.7723329 -19.42396746 -258.7723329 -19.42396746 -250.00390625 -19.359375 C-246.60870025 -18.75048815 -245.05322476 -16.61319515 -243 -14 C-241.66533335 -11.3306667 -241.86063548 -9.27357731 -241.84228516 -6.28442383 C-241.83202301 -5.08590286 -241.82176086 -3.8873819 -241.81118774 -2.65254211 C-241.80388641 -1.35052353 -241.79658508 -0.04850494 -241.7890625 1.29296875 C-241.77609743 2.64098428 -241.76228119 3.98899188 -241.74765015 5.33699036 C-241.68609049 11.06451227 -241.63211808 16.79201519 -241.59863281 22.51977539 C-241.57759807 26.0235968 -241.54221934 29.52703346 -241.49787521 33.03063393 C-241.47695112 35.00627562 -241.47168005 36.98206322 -241.46670532 38.95780945 C-241.35651778 49.26761337 -241.35651778 49.26761337 -236.25 57.9375 C-232.77069396 59.58050563 -230.83190416 59.62818101 -227 59 C-221.23899492 55.58069842 -216.59219583 50.72236455 -211.9453125 45.95703125 C-208.78956233 42.78227054 -205.40507195 39.90211565 -202 37 C-200.59814453 35.78183594 -200.59814453 35.78183594 -199.16796875 34.5390625 C-146.17357521 -11.25464264 -63.44871583 -50.11302515 0 0 Z " fill="#80E978" transform="translate(534,284)"/>
</svg>
